<?xml version="1.0" encoding="utf-8"?>
<!-- Generator: Adobe Illustrator 16.0.0, SVG Export Plug-In . SVG Version: 6.00 Build 0)  -->
<!DOCTYPE svg PUBLIC "-//W3C//DTD SVG 1.1//EN" "http://www.w3.org/Graphics/SVG/1.1/DTD/svg11.dtd">
<svg version="1.1" id="Layer_1" xmlns="http://www.w3.org/2000/svg" xmlns:xlink="http://www.w3.org/1999/xlink" x="0px" y="0px"
	 width="400px" height="92.843px" viewBox="0 0 400 92.843" enable-background="new 0 0 400 92.843" xml:space="preserve">
<g id="Layer_1_1_">
	<g>
		<path fill="#FF2B06" d="M18.414,73.421l-2.972-4.283h2.832l1.591,2.361l1.573-2.361h2.744l-2.972,4.23l3.34,4.809h-2.833
			l-1.888-2.85l-1.889,2.85h-2.779L18.414,73.421z"/>
		<path d="M36.314,72.826h-8.829v-1.869h8.829V72.826z M36.314,76.569h-8.829v-1.872h8.829V76.569z"/>
		<path d="M43.08,67.74h-2.482v-2.046h2.482V67.74z M40.598,69.138h2.482v9.039h-2.482V69.138z"/>
		<path d="M44.688,69.138h2.36v1.259h0.053c0.63-1.013,1.713-1.503,2.763-1.503c2.64,0,3.304,1.486,3.304,3.725v5.559h-2.482v-5.104
			c0-1.486-0.438-2.221-1.591-2.221c-1.347,0-1.923,0.751-1.923,2.587v4.737h-2.483L44.688,69.138L44.688,69.138z"/>
		<path d="M61.155,77.023H61.12c-0.576,0.979-1.591,1.398-2.744,1.398c-2.729,0-4.057-2.344-4.057-4.844
			c0-2.43,1.347-4.686,4.004-4.686c1.066,0,2.115,0.455,2.691,1.348h-0.017h0.034v-4.547h2.483v12.482h-2.36L61.155,77.023
			L61.155,77.023z M58.987,70.765c-1.626,0-2.186,1.398-2.186,2.886c0,1.415,0.646,2.899,2.186,2.899
			c1.644,0,2.133-1.434,2.133-2.918C61.12,72.164,60.596,70.765,58.987,70.765z"/>
		<path d="M67.081,74.262c0.069,1.571,0.839,2.288,2.221,2.288c0.996,0,1.8-0.61,1.958-1.17h2.185
			c-0.699,2.134-2.185,3.043-4.23,3.043c-2.85,0-4.615-1.959-4.615-4.758c0-2.709,1.87-4.771,4.615-4.771
			c3.076,0,4.562,2.589,4.388,5.367L67.081,74.262L67.081,74.262z M71.119,72.688c-0.227-1.261-0.77-1.924-1.976-1.924
			c-1.572,0-2.027,1.224-2.062,1.924H71.119z"/>
		<path d="M74.72,69.138h2.36v1.154h0.035c0.594-0.961,1.573-1.398,2.692-1.398c2.832,0,4.108,2.291,4.108,4.859
			c0,2.412-1.329,4.67-3.97,4.67c-1.083,0-2.114-0.473-2.708-1.365h-0.036v4.302H74.72V69.138z M81.433,73.685
			c0-1.436-0.576-2.92-2.167-2.92c-1.626,0-2.15,1.449-2.15,2.92c0,1.469,0.56,2.865,2.168,2.865
			C80.908,76.55,81.433,75.153,81.433,73.685z"/>
		<path d="M87.097,74.262c0.07,1.571,0.839,2.288,2.221,2.288c0.996,0,1.801-0.61,1.958-1.17h2.185
			c-0.699,2.134-2.185,3.043-4.23,3.043c-2.85,0-4.615-1.959-4.615-4.758c0-2.709,1.871-4.771,4.615-4.771
			c3.077,0,4.563,2.589,4.388,5.367L87.097,74.262L87.097,74.262z M91.135,72.688c-0.227-1.261-0.769-1.924-1.976-1.924
			c-1.573,0-2.028,1.224-2.062,1.924H91.135z"/>
		<path d="M94.735,69.138h2.36v1.259h0.053c0.629-1.013,1.713-1.503,2.762-1.503c2.641,0,3.305,1.486,3.305,3.725v5.559h-2.482
			v-5.104c0-1.486-0.438-2.221-1.592-2.221c-1.346,0-1.923,0.751-1.923,2.587v4.737h-2.482L94.735,69.138L94.735,69.138z"/>
		<path d="M111.203,77.023h-0.035c-0.577,0.979-1.591,1.398-2.744,1.398c-2.728,0-4.056-2.344-4.056-4.844
			c0-2.43,1.346-4.686,4.002-4.686c1.067,0,2.116,0.455,2.693,1.348h-0.018h0.034v-4.547h2.482v12.482h-2.359L111.203,77.023
			L111.203,77.023z M109.035,70.765c-1.626,0-2.185,1.398-2.185,2.886c0,1.415,0.646,2.899,2.185,2.899
			c1.643,0,2.133-1.434,2.133-2.918C111.168,72.164,110.644,70.765,109.035,70.765z"/>
		<path d="M117.129,74.262c0.07,1.571,0.839,2.288,2.221,2.288c0.996,0,1.8-0.61,1.957-1.17h2.186
			c-0.699,2.134-2.186,3.043-4.23,3.043c-2.85,0-4.615-1.959-4.615-4.758c0-2.709,1.87-4.771,4.615-4.771
			c3.077,0,4.562,2.589,4.388,5.367L117.129,74.262L117.129,74.262z M121.167,72.688c-0.228-1.261-0.769-1.924-1.976-1.924
			c-1.573,0-2.027,1.224-2.062,1.924H121.167z"/>
		<path d="M124.768,69.138h2.36v1.259h0.052c0.63-1.013,1.714-1.503,2.763-1.503c2.64,0,3.305,1.486,3.305,3.725v5.559h-2.482
			v-5.104c0-1.486-0.438-2.221-1.592-2.221c-1.345,0-1.922,0.751-1.922,2.587v4.737h-2.483L124.768,69.138L124.768,69.138z"/>
		<path d="M137.932,69.138h1.818V70.8h-1.818v4.475c0,0.84,0.209,1.051,1.049,1.051c0.262,0,0.507-0.02,0.77-0.07v1.939
			c-0.42,0.07-0.962,0.088-1.452,0.088c-1.521,0-2.849-0.35-2.849-2.15V70.8h-1.504v-1.662h1.504v-2.709h2.482V69.138z"/>
		<path d="M140.657,65.694h2.482v12.481h-2.482V65.694z"/>
		<path d="M149.206,79.313c-0.541,1.451-1.398,2.046-3.112,2.046c-0.506,0-1.014-0.035-1.521-0.088v-2.046
			c0.473,0.036,0.962,0.106,1.451,0.088c0.856-0.088,1.137-0.979,0.856-1.696l-3.181-8.479h2.657l2.045,6.189h0.035l1.976-6.189
			h2.569L149.206,79.313z"/>
		<path d="M162.369,68.894c2.851,0,4.687,1.889,4.687,4.771c0,2.869-1.836,4.758-4.687,4.758c-2.831,0-4.667-1.889-4.667-4.758
			C157.702,70.783,159.538,68.894,162.369,68.894z M162.369,76.55c1.696,0,2.203-1.45,2.203-2.885c0-1.451-0.507-2.9-2.203-2.9
			c-1.678,0-2.185,1.449-2.185,2.9C160.185,75.1,160.691,76.55,162.369,76.55z"/>
		<path d="M167.963,69.138h2.36v1.679h0.035c0.455-1.135,1.679-1.923,2.885-1.923c0.175,0,0.385,0.033,0.542,0.087v2.308
			c-0.228-0.051-0.595-0.086-0.892-0.086c-1.818,0-2.447,1.311-2.447,2.901v4.073h-2.483V69.138z"/>
		<path d="M183.103,77.602c0,1.483-0.525,4.002-4.686,4.002c-1.783,0-3.863-0.839-3.985-2.901h2.465
			c0.228,0.928,0.979,1.241,1.854,1.241c1.381,0,2.01-0.944,1.993-2.237v-1.189h-0.035c-0.542,0.945-1.627,1.398-2.71,1.398
			c-2.71,0-3.864-2.062-3.864-4.547c0-2.342,1.346-4.475,3.881-4.475c1.189,0,2.099,0.402,2.693,1.451h0.035v-1.207h2.359V77.602
			L183.103,77.602z M180.743,73.544c0-1.469-0.508-2.779-2.115-2.779c-1.399,0-2.012,1.225-2.012,2.568
			c0,1.293,0.489,2.711,2.012,2.711C180.043,76.044,180.743,74.837,180.743,73.544z"/>
		<path d="M184.291,71.917c0.14-2.324,2.22-3.023,4.247-3.023c1.802,0,3.969,0.402,3.969,2.57v4.701
			c0,0.821,0.088,1.645,0.315,2.012h-2.518c-0.088-0.28-0.157-0.575-0.175-0.875c-0.787,0.822-1.94,1.121-3.043,1.121
			c-1.712,0-3.076-0.857-3.076-2.711c0-2.047,1.538-2.535,3.076-2.746c1.521-0.229,2.938-0.174,2.938-1.188
			c0-1.066-0.734-1.224-1.608-1.224c-0.944,0-1.556,0.384-1.643,1.362H184.291z M190.024,73.753
			c-0.42,0.367-1.293,0.386-2.063,0.523c-0.769,0.158-1.468,0.42-1.468,1.329c0,0.929,0.717,1.153,1.521,1.153
			c1.941,0,2.011-1.537,2.011-2.079L190.024,73.753L190.024,73.753z"/>
		<path d="M194.08,69.138h2.36v1.259h0.053c0.629-1.013,1.712-1.503,2.761-1.503c2.641,0,3.305,1.486,3.305,3.725v5.559h-2.481
			v-5.104c0-1.486-0.437-2.221-1.591-2.221c-1.346,0-1.923,0.751-1.923,2.587v4.737h-2.482L194.08,69.138L194.08,69.138z"/>
		<path d="M206.299,67.74h-2.482v-2.046h2.482V67.74z M203.814,69.138h2.483v9.039h-2.483V69.138z"/>
		<path d="M207.348,76.306l4.701-5.299h-4.354v-1.869h7.623v1.869l-4.702,5.299h5.036v1.871h-8.307v-1.871H207.348z"/>
		<path d="M218.676,74.262c0.07,1.571,0.84,2.288,2.221,2.288c0.996,0,1.801-0.61,1.959-1.17h2.184
			c-0.699,2.134-2.184,3.043-4.23,3.043c-2.85,0-4.613-1.959-4.613-4.758c0-2.709,1.871-4.771,4.613-4.771
			c3.078,0,4.563,2.589,4.39,5.367L218.676,74.262L218.676,74.262z M222.713,72.688c-0.227-1.261-0.768-1.924-1.975-1.924
			c-1.573,0-2.029,1.224-2.062,1.924H222.713z"/>
		<path d="M232.766,77.023h-0.035c-0.578,0.979-1.59,1.398-2.744,1.398c-2.728,0-4.057-2.344-4.057-4.844
			c0-2.43,1.348-4.686,4.004-4.686c1.066,0,2.115,0.455,2.693,1.348h-0.02h0.035v-4.547h2.483v12.482h-2.36V77.023L232.766,77.023z
			 M230.598,70.765c-1.625,0-2.185,1.398-2.185,2.886c0,1.415,0.646,2.899,2.185,2.899c1.644,0,2.133-1.434,2.133-2.918
			C232.73,72.164,232.207,70.765,230.598,70.765z"/>
		<path d="M244.182,68.001h-3.74v-2.308h10.226v2.308h-3.74v10.176h-2.745V68.001L244.182,68.001z"/>
		<path d="M251.748,65.694h9.337v2.308h-6.592v2.676h6.05v2.135h-6.05v3.059h6.731v2.307h-9.478L251.748,65.694L251.748,65.694z"/>
		<path d="M262.378,65.694h5.384c3.235,0,5.666,2.028,5.666,6.171c0,3.619-1.855,6.312-5.666,6.312h-5.384V65.694z M265.123,75.869
			h2.447c1.59,0,3.111-0.978,3.111-3.74c0-2.519-0.873-4.127-3.603-4.127h-1.957L265.123,75.869L265.123,75.869z"/>
		<path d="M281.275,74.262c0.068,1.571,0.839,2.288,2.22,2.288c0.997,0,1.801-0.61,1.958-1.17h2.188
			c-0.701,2.134-2.188,3.043-4.23,3.043c-2.852,0-4.616-1.959-4.616-4.758c0-2.709,1.87-4.771,4.616-4.771
			c3.074,0,4.562,2.589,4.387,5.367L281.275,74.262L281.275,74.262z M285.312,72.688c-0.227-1.261-0.77-1.924-1.976-1.924
			c-1.573,0-2.026,1.224-2.062,1.924H285.312z"/>
		<path d="M293.564,78.177h-2.762l-3.097-9.039h2.606l1.904,6.172h0.035l1.904-6.172h2.467L293.564,78.177z"/>
		<path d="M299,74.262c0.07,1.571,0.84,2.288,2.221,2.288c0.997,0,1.803-0.61,1.959-1.17h2.186c-0.699,2.134-2.186,3.043-4.23,3.043
			c-2.849,0-4.615-1.959-4.615-4.758c0-2.709,1.871-4.771,4.615-4.771c3.076,0,4.563,2.589,4.387,5.367L299,74.262L299,74.262z
			 M303.039,72.688c-0.229-1.261-0.77-1.924-1.975-1.924c-1.574,0-2.028,1.224-2.064,1.924H303.039z"/>
		<path d="M306.641,69.138H309v1.259h0.052c0.63-1.013,1.716-1.503,2.766-1.503c2.638,0,3.303,1.486,3.303,3.725v5.559h-2.481
			v-5.104c0-1.486-0.438-2.221-1.592-2.221c-1.346,0-1.924,0.751-1.924,2.587v4.737h-2.481L306.641,69.138L306.641,69.138z"/>
		<path d="M319.804,69.138h1.818V70.8h-1.818v4.475c0,0.84,0.21,1.051,1.05,1.051c0.262,0,0.508-0.02,0.77-0.07v1.939
			c-0.42,0.07-0.961,0.088-1.452,0.088c-1.52,0-2.849-0.35-2.849-2.15V70.8h-1.504v-1.662h1.504v-2.709h2.481V69.138z"/>
		<g>
			<g>
				<path fill="#FF2B06" d="M25.896,24.398H14.249V13.745h36.087v10.653H38.693v30.908H25.896V24.398z"/>
				<path fill="#FF2B06" d="M52.325,13.745h35.033v10.653H65.131v5.179h22.228v9.898H65.131v5.18h22.233v10.651H52.325V13.745z"/>
				<path fill="#FF2B06" d="M89.513,13.745h21.014c13.852,0,18.747,10.246,18.747,20.721c0,12.75-6.753,20.841-21.248,20.841H89.513
					V13.745z M102.317,44.655h5.008c7.977,0,9.143-6.464,9.143-10.368c0-2.614-0.819-9.889-10.075-9.889h-4.075L102.317,44.655
					L102.317,44.655z"/>
			</g>
			<g>
				<g>
					<path fill="#FF2B06" d="M147.673,39.291l-3.906-6.478l-3.81,6.478h-9.382l8.907-13.098l-8.576-12.527h9.385l3.476,6.192
						l3.575-6.192h9.383l-8.574,12.527l8.907,13.098H147.673z"/>
				</g>
			</g>
		</g>
		<g>
			<path d="M167.079,13.852h5.664v17.102h21.271V13.852h5.663V55.24h-5.663V35.884h-21.271v19.354h-5.664V13.852z"/>
			<path d="M229.795,28.077c2.666,2.589,4,6.398,4,11.427c0,4.861-1.175,8.878-3.525,12.048c-2.351,3.171-5.994,4.758-10.938,4.758
				c-4.123,0-7.396-1.402-9.818-4.207c-2.425-2.809-3.638-6.573-3.638-11.304c0-5.065,1.276-9.101,3.832-12.104
				c2.554-3.002,5.985-4.504,10.295-4.504C223.861,24.191,227.128,25.486,229.795,28.077z M226.645,48.13
				c1.236-2.542,1.854-5.371,1.854-8.483c0-2.814-0.446-5.104-1.338-6.867c-1.41-2.775-3.845-4.164-7.298-4.164
				c-3.066,0-5.293,1.182-6.688,3.545c-1.393,2.365-2.088,5.216-2.088,8.555c0,3.209,0.695,5.882,2.088,8.021
				c1.395,2.138,3.604,3.208,6.631,3.208C223.131,51.943,225.41,50.671,226.645,48.13z"/>
			<path d="M240.021,25.064h4.817v4.283c1.429-1.766,2.94-3.033,4.536-3.804c1.598-0.771,3.371-1.155,5.324-1.155
				c4.283,0,7.175,1.493,8.678,4.48c0.826,1.634,1.241,3.972,1.241,7.015v19.354h-5.157V36.222c0-1.84-0.271-3.325-0.816-4.452
				c-0.9-1.877-2.535-2.817-4.901-2.817c-1.203,0-2.188,0.123-2.957,0.367c-1.392,0.413-2.611,1.24-3.664,2.479
				c-0.847,0.995-1.396,2.023-1.647,3.085c-0.254,1.062-0.381,2.578-0.381,4.55V55.24h-5.072V25.064L240.021,25.064z"/>
			<path d="M293.977,28.077c2.664,2.589,4,6.398,4,11.427c0,4.861-1.176,8.878-3.524,12.048c-2.353,3.171-5.998,4.758-10.94,4.758
				c-4.121,0-7.395-1.402-9.818-4.207c-2.426-2.809-3.637-6.573-3.637-11.304c0-5.065,1.276-9.101,3.83-12.104
				c2.559-3.002,5.988-4.504,10.297-4.504C288.044,24.191,291.309,25.486,293.977,28.077z M290.826,48.13
				c1.232-2.542,1.852-5.371,1.852-8.483c0-2.814-0.443-5.104-1.336-6.867c-1.412-2.775-3.845-4.164-7.3-4.164
				c-3.063,0-5.293,1.182-6.687,3.545c-1.393,2.365-2.09,5.216-2.09,8.555c0,3.209,0.697,5.882,2.09,8.021
				c1.394,2.138,3.604,3.208,6.631,3.208C287.311,51.943,289.591,50.671,290.826,48.13z"/>
			<path d="M304.342,13.852h5.073V55.24h-5.073V13.852z"/>
			<path d="M322.093,25.064v20.032c0,1.54,0.236,2.799,0.713,3.774c0.879,1.803,2.516,2.703,4.911,2.703
				c3.439,0,5.781-1.576,7.024-4.731c0.677-1.69,1.016-4.01,1.016-6.959v-14.82h5.07v30.174h-4.789l0.056-4.449
				c-0.646,1.146-1.447,2.112-2.404,2.9c-1.897,1.577-4.202,2.366-6.911,2.366c-4.221,0-7.097-1.437-8.625-4.31
				c-0.831-1.541-1.245-3.598-1.245-6.171v-20.51H322.093z"/>
			<path d="M349.252,13.852h5.071V55.24h-5.071V13.852z"/>
			<path d="M367.001,25.064v20.032c0,1.54,0.238,2.799,0.714,3.774c0.878,1.803,2.514,2.703,4.911,2.703
				c3.438,0,5.78-1.576,7.025-4.731c0.676-1.69,1.016-4.01,1.016-6.959v-14.82h5.069v30.174h-4.79l0.058-4.449
				c-0.646,1.146-1.448,2.112-2.407,2.9c-1.896,1.577-4.202,2.366-6.909,2.366c-4.223,0-7.096-1.437-8.627-4.31
				c-0.827-1.541-1.243-3.598-1.243-6.171v-20.51H367.001z"/>
		</g>
	</g>
</g>
<g id="Layer_2">
</g>
</svg>
